<?xml version="1.0" ?><svg fill="none" height="24" viewBox="0 0 24 24" width="24" xmlns="http://www.w3.org/2000/svg"><path clip-rule="evenodd" d="M3.26676 9.7193C3.41498 7.34764 5.38171 5.5 7.75799 5.5H16.2424C18.6187 5.5 20.5854 7.34764 20.7336 9.7193L21.2336 17.7193C21.3955 20.3099 19.3381 22.5 16.7424 22.5H7.25799C4.6623 22.5 2.60484 20.3099 2.76676 17.7193L3.26676 9.7193ZM7.75799 6.5C5.90977 6.5 4.3801 7.93705 4.26481 9.78168L3.76481 17.7817C3.63887 19.7966 5.23912 21.5 7.25799 21.5H16.7424C18.7613 21.5 20.3615 19.7966 20.2356 17.7817L19.7356 9.78168C19.6203 7.93705 18.0906 6.5 16.2424 6.5H7.75799Z" fill="black" fill-rule="evenodd"/><path clip-rule="evenodd" d="M7.5 5C7.5 3.067 9.067 1.5 11 1.5H13C14.933 1.5 16.5 3.067 16.5 5V6H15.5V5C15.5 3.61929 14.3807 2.5 13 2.5H11C9.61929 2.5 8.5 3.61929 8.5 5V6H7.5V5Z" fill="black" fill-rule="evenodd"/><path clip-rule="evenodd" d="M7.5 10C7.5 11.933 9.067 13.5 11 13.5H13C14.933 13.5 16.5 11.933 16.5 10V9H15.5V10C15.5 11.3807 14.3807 12.5 13 12.5H11C9.61929 12.5 8.5 11.3807 8.5 10V9H7.5V10Z" fill="black" fill-rule="evenodd"/></svg>